<?xml version="1.0" encoding="utf-8"?>
<!-- Generator: Adobe Illustrator 27.2.0, SVG Export Plug-In . SVG Version: 6.00 Build 0)  -->
<svg version="1.1" id="Calque_3" xmlns="http://www.w3.org/2000/svg" xmlns:xlink="http://www.w3.org/1999/xlink" x="0px" y="0px"
	 viewBox="0 0 1137.3 380.8" style="enable-background:new 0 0 1137.3 380.8;" xml:space="preserve">
<style type="text/css">
	.st0{fill:#FFFFFF;}
	.st1{fill:#96C45B;}
</style>
<g>
	<g>
		<path class="st0" d="M468,126.7c-1.8-1.8-4.2-2.8-7.2-2.8c-2.7,0-5,0.9-6.9,2.8c-2,1.8-2.9,4.2-2.9,6.9v46.9h-66.1v-46.9
			c0-2.8-1-5.1-2.9-6.9c-2-1.8-4.2-2.8-6.7-2.8c-3,0-5.5,0.9-7.4,2.8c-1.9,1.8-2.9,4.2-2.9,6.9v113.6c0,2.8,0.9,5.1,2.7,6.9
			c1.8,1.8,4.2,2.8,7.2,2.8c2.7,0,5-0.9,6.9-2.8c2-1.8,3-4.1,3.1-6.9v-48.3h66.1v48.3c0,2.8,1,5.1,2.8,6.9c1.9,1.8,4.2,2.8,6.8,2.8
			c3,0,5.5-0.9,7.3-2.8c1.8-1.8,2.8-4.1,2.8-6.9V133.6C470.7,130.8,469.8,128.5,468,126.7z"/>
		<path class="st0" d="M584.5,123.3c2.4,0,4.6,0.9,6.6,2.8c2,1.9,2.9,4.2,2.9,6.8c0,1-0.2,2-0.5,3c-0.3,1-0.8,2-1.4,2.8l-43.5,61.6
			l3-11.2v58c0,2.8-1,5.1-2.8,6.9c-1.9,1.8-4.1,2.8-6.5,2.8c-2.7,0-4.9-0.9-6.8-2.8c-1.9-1.8-2.9-4.1-2.9-6.9v-56.4l1.5,5.5
			l-42-56.1c-1-1.4-1.7-2.7-2.1-3.9c-0.4-1.2-0.6-2.4-0.6-3.5c0-2.8,1.1-5.1,3.3-6.8c2.2-1.8,4.5-2.7,6.7-2.7c3,0,5.6,1.5,7.8,4.4
			l38,52.1l-4.6-0.6l35.7-51.1C578.7,124.9,581.3,123.3,584.5,123.3z"/>
		<path class="st0" d="M669.3,258.8c-9.8,0-18.8-1.7-27.1-5.2c-8.3-3.5-15.6-8.4-21.9-14.6c-6.3-6.3-11.3-13.5-14.8-21.8
			c-3.5-8.2-5.3-17.2-5.3-26.8c0-9.6,1.8-18.6,5.3-26.8c3.5-8.2,8.5-15.5,14.8-21.8c6.3-6.3,13.6-11.1,21.9-14.6
			c8.3-3.5,17.3-5.2,27.1-5.2c6.2,0,12.2,0.7,18,2.1c5.8,1.4,11,3.4,15.9,6.1c1.6,0.9,2.8,2.1,3.6,3.5c0.8,1.5,1.1,2.9,1.1,4.5
			c0,2.5-0.9,4.8-2.7,6.7c-1.8,2-3.9,2.9-6.5,2.9c-0.9,0-1.8-0.1-2.7-0.4c-0.9-0.3-1.8-0.6-2.7-1c-3.5-1.6-7.3-3-11.4-4
			c-4.1-1-8.3-1.5-12.7-1.5c-9.1,0-17.4,2.2-24.7,6.6c-7.3,4.4-13.1,10.4-17.4,17.8c-4.2,7.4-6.4,15.7-6.4,25c0,9.1,2.1,17.5,6.4,25
			c4.2,7.5,10,13.5,17.4,17.9c7.3,4.4,15.6,6.6,24.7,6.6c4.4,0,9.1-0.5,14.1-1.6c4.9-1.1,9.1-2.5,12.5-4.3l-1.5,5.1v-36.1l3,2.7
			h-24.9c-2.8,0-5.1-0.9-6.9-2.7c-1.8-1.8-2.8-4.1-2.8-6.8c0-2.8,0.9-5.1,2.8-6.8c1.8-1.8,4.1-2.7,6.9-2.7h32.7
			c2.8,0,5.1,0.9,6.9,2.8c1.8,1.8,2.8,4.2,2.8,6.9v42.2c0,2-0.5,3.7-1.5,5.1c-1,1.4-2.2,2.5-3.4,3.4c-5.8,3.5-12.2,6.4-19.1,8.5
			C683.9,257.7,676.7,258.8,669.3,258.8z"/>
		<path class="st0" d="M749.4,123.9H815c2.8,0,5.1,0.9,6.9,2.7c1.8,1.8,2.8,4,2.8,6.6s-0.9,4.8-2.8,6.5c-1.8,1.6-4.2,2.5-6.9,2.5
			h-57.2l1.9-3.2v42.6l-1.7-1.9h48.5c2.8,0,5.1,0.9,6.9,2.7c1.8,1.8,2.8,4.1,2.8,6.8c0,2.7-0.9,4.8-2.8,6.5
			c-1.8,1.6-4.2,2.5-6.9,2.5h-48.1l1.3-1.7v43.9l-1.3-1.5H815c2.8,0,5.1,0.9,6.9,2.8c1.8,1.8,2.8,4,2.8,6.4c0,2.7-0.9,4.8-2.8,6.6
			c-1.8,1.7-4.2,2.6-6.9,2.6h-65.5c-2.8,0-5.1-0.9-6.9-2.8c-1.8-1.8-2.8-4.1-2.8-6.9V133.6c0-2.8,0.9-5.1,2.8-6.9
			C744.3,124.8,746.6,123.9,749.4,123.9z"/>
		<path class="st0" d="M969.5,190.4c0,9.6-1.6,18.6-4.8,26.9c-3.2,8.3-7.6,15.6-13.4,21.8c-5.8,6.2-12.6,11.1-20.4,14.5
			c-7.9,3.5-16.5,5.2-25.8,5.2c-9.4,0-18-1.7-25.7-5.2c-7.8-3.5-14.6-8.3-20.3-14.5c-5.8-6.2-10.2-13.5-13.4-21.8
			c-3.2-8.3-4.8-17.3-4.8-26.9c0-9.6,1.6-18.6,4.8-26.9c3.2-8.3,7.6-15.5,13.4-21.8c5.8-6.2,12.5-11,20.3-14.5
			c7.8-3.5,16.4-5.2,25.7-5.2c9.4,0,18,1.7,25.8,5.2c7.9,3.5,14.7,8.3,20.4,14.5c5.8,6.2,10.2,13.5,13.4,21.8
			C967.9,171.8,969.5,180.8,969.5,190.4z M948.9,190.4c0-9.4-1.9-17.8-5.7-25.3c-3.8-7.5-9-13.4-15.5-17.7
			c-6.5-4.3-14.1-6.5-22.7-6.5c-8.5,0-16,2.2-22.6,6.5c-6.6,4.3-11.7,10.2-15.4,17.6c-3.7,7.4-5.5,15.9-5.5,25.4
			c0,9.4,1.8,17.8,5.5,25.3c3.7,7.5,8.8,13.4,15.4,17.7c6.6,4.3,14.1,6.5,22.6,6.5c8.6,0,16.2-2.2,22.7-6.5
			c6.5-4.3,11.7-10.2,15.5-17.7C947,208.2,948.9,199.8,948.9,190.4z"/>
		<path class="st0" d="M1033.7,258.8c-9.1,0-17.2-1.2-24.3-3.7c-7.1-2.5-13.9-6.6-20.3-12.4c-1.4-1.1-2.4-2.4-3.1-3.9
			c-0.7-1.5-1-2.9-1-4.5c0-2.4,0.9-4.6,2.7-6.5c1.8-1.9,4-2.9,6.6-2.9c2,0,3.9,0.7,5.7,2.1c4.8,4.4,9.8,7.8,15.1,10.1
			c5.3,2.3,11.4,3.4,18.5,3.4c5.1,0,9.7-0.8,14-2.5c4.2-1.6,7.6-3.9,10.2-6.6c2.5-2.8,3.8-6,3.8-9.7c-0.1-4.6-1.5-8.3-4-11.2
			c-2.5-2.9-6.2-5.4-11.1-7.4c-4.9-2-10.7-3.7-17.6-4.9c-6.3-1.3-12-2.9-17.1-4.9c-5.1-2-9.3-4.6-12.8-7.7
			c-3.5-3.1-6.2-6.8-8.1-11.1c-1.9-4.3-2.8-9.2-2.8-14.8c0-7.7,2-14.4,6.1-20c4.1-5.6,9.6-10,16.5-13c7-3,14.8-4.6,23.6-4.6
			c8,0,15.5,1.2,22.4,3.7c7,2.5,12.6,5.8,16.9,10c3,2.7,4.6,5.5,4.6,8.6c0,2.4-0.9,4.6-2.8,6.5c-1.8,1.9-4,2.9-6.4,2.9
			c-1.8,0-3.3-0.5-4.6-1.5c-2-2.2-4.8-4.1-8.2-5.8s-7.1-3.1-10.9-4.3c-3.9-1.1-7.6-1.7-11.1-1.7c-5.7,0-10.6,0.8-14.6,2.4
			c-4.1,1.6-7.2,3.7-9.3,6.5c-2.2,2.7-3.2,6-3.2,9.8c0,4.3,1.2,7.8,3.7,10.5c2.5,2.7,5.9,4.9,10.4,6.6c4.4,1.7,9.5,3.3,15.2,4.7
			c7,1.5,13.2,3.2,18.7,5.1s10.2,4.3,14,7.3c3.8,3,6.7,6.7,8.7,11.1c2,4.4,3,9.9,3,16.5c0,7.6-2.2,14.2-6.5,20
			c-4.3,5.7-10,10.1-17,13.3S1042.3,258.8,1033.7,258.8z"/>
	</g>
	<path class="st0" d="M180,56.7v36.7c40.9,2.7,73.7,35.6,76.1,76.6h37.3l0-113.3H180z"/>
	<path class="st0" d="M93.3,180H56.7v114.1H170v-38C129,253.7,95.9,220.9,93.3,180z"/>
	<g>
		<g>
			<path class="st0" d="M198.9,107.4l3.5,5.4c0,0-2.4,3.7-4.2,2.7c-1.8-1-2.3,1.5-2.3,1.5s-1.4,3.4-3.2,2.2s-2.6-2.5-2.6-2.5
				s3.9,0.9,4.2-0.1c0.4-1-5.4-3.6-7.8-3.7c-2.5-0.1-2.5-2.5-7.8,0.9c-5.3,3.5-4.7,5.2-4.7,5.2s-4.2,3.3-5.5,3.2
				c-1.3-0.1-1.2,5.8,1.2,5.3c2.4-0.5,3.7-1.8,3.7-1.8s2.2,3.9,2.4,5.3c0.2,1.4,3.2-1.2,3.2-1.2l0.5-2.8c0,0,2.7-0.6,0.2-3
				c-2.6-2.4,1.7-3.8,1.7-3.8s0.6-3.6,2.5-2.5c1.8,1.1-1.5,3.5-1.5,3.5s0,2.9,1.5,3.3c1.6,0.3,4.5-0.7,4.5-0.7s4,2.2-0.1,2.1
				c-4.1,0-2.2,2.9-2.2,2.9s-2.2-1.6-2.5-0.4c-0.3,1.1,1.3,4.7-2.3,4.3c-3.7-0.4-4.4,1-4.4,1l-2.7-0.5c0,0-1.4,0.7-1.1-0.7
				c0.3-1.4,0.6-4.4-0.5-4c-1.1,0.4-2.3,3-0.9,5c-2,0.5-5,1.8-5.9,2.9c-0.9,1.1-3.5,3.1-3.5,3.1s-1,0.7-2.5,0.2
				c-1.5-0.5-0.3,1.4-0.3,1.4s-2.7-0.6-3.2-0.1c-0.5,0.5,0.1,1.3,1.4,1.6c1.3,0.3,2.2,1.5,1.8,3.1c-0.4,1.5-0.7,2.8-1.4,2.9
				c-0.7,0.1-4.3,0.4-5.1,0.1c-0.8-0.4-2.5-0.9-2.6,0.6c-0.1,1.5,0,3.1,0,3.1s-1.7,1.8-1.2,2.5c0.5,0.8,0.1,2.8,1.1,3
				c1,0.2,2.3,0.6,2.7,1.2c0.4,0.6,2.3-0.5,2.3-0.5l2.3-0.2c0,0,2.3-1.1,2.6-2.4c0.2-1.3-0.5-1.8,0.6-2.7c1.1-1,3.5-1.9,3.5-2.2
				s0-2.2,1.2-2.2c1.2,0,2.3,0.7,2.3,0.7s1.3-1.4,3.2-1.6c1.9-0.2,2.8,1.5,3.1,2.1c0.4,0.6,2.7,2.3,4.1,2.8c1.4,0.5,2.1,2.6,1,3.3
				c0.2,0.8,1.1,0,1.1,0s1.1-0.9,0.5-2c-0.6-1.2,1.1-0.6,1.1-0.6s1.4,0.5,0.5-0.4c-1-0.9-2.7-2.3-3.6-2.4c-0.9-0.1-1.8-2-1.8-2
				s-2.4-2-0.9-2.7c1.5-0.7,4,2.8,4,2.8s3.5,1,3.7,2.4c0.2,1.4,0,2.7,1.2,3.4c1.2,0.7,2.1,1.3,2.1,1.3s-1.2,0.7-0.6,1.6
				c0.6,0.9,1.7,1.3,1.7,1.3s0-1.6,0.6-1.9c0.6-0.3,1.5-0.5,0.1-1.7c-1.4-1.3-2-2.3-1-2.2c0.9,0.1,1.7-0.7,1.7-0.7s2.3,1.5,2.8,1.2
				c0.5-0.3,2.3-1.2,1.7-2.3c-0.6-1.1-0.6-2.5-0.6-2.5s1.2-4.4,2.5-4.3c1.4,0.1,2.4,0.9,2.4,0.9s-1,1.5,0.6,1.8
				c1.6,0.3,2.7-0.5,2.7-0.5s-1.8-1.1-0.9-1.8c0.9-0.7,2.7-0.7,2.7-0.7s0.5,1.2-0.7,2.2c-1.2,0.9,5,3.7,5,3.7s1.1,2.2-1,2
				c-2.1-0.2-5.1-1.2-6.3-1c-1.1,0.2-5.2,0.9-5.5,1.4c-0.3,0.5-2.7,2.1-2.7,2.1s0.4,5.6,3.5,4.8c3.1-0.9,3.7,0.1,3.7,0.1
				s1.1-0.2,1.9-0.7c0.8-0.5,1.8-0.7,1.9,0.6c0.1,1.3-1.6,6.7-1.6,6.7s-4.2-0.1-5.9,0.9c-1.7,1-7.5-2.7-7.5-2.7s-3.5,0.5-3.5,1.4
				s0.4,2.8-1.3,1.8c-1.7-1-3.4-0.4-4.4-2.5c-4.4-0.1-6.1-2.3-6.1-2.3s2.6-3.2,0.1-4.1c-2.4-1-7.2,0.2-7.2,0.2s-4.2,2.6-12.2,2
				c-8.1-0.6-12.8,18.8-12.8,18.8s-3.3,21.1,10,22c13.3,0.9,13.8-4,18.3,0.6c4.5,4.6,6.1,12.3,6.1,12.3s2.6,7.9-0.4,10.4
				c-2.9,2.6,3.4,15.6,5,14.8c1.6-0.8,10-3.3,11.7-9c1.7-5.7,6.5-4.8,6.5-4.8s3.1-0.5,4-10.1c0.9-9.7,9.6-11.1,9.6-11.1
				s7-5.5,6.4-10.4c0.8-1.9-7.5,1.4-7.5,1.4s-8.5-23.1-9-24.4c0,0,0,0,0,0c0,0,0,0,0,0c0.4,0.9,4.4,2.6,5.4,9.9
				c4,3.4,3.9,10.9,3.9,10.9s10.6,0.6,16.2-11.6c-1.9-3.6-2.1-5.9-2.1-5.9s-0.8,4-3.9,3.4c-3-0.6-4.2-9-4.2-9s-0.3-2.1,2.7,1.8
				c3,3.9,4.6,1.9,4.6,1.9s1-0.8,2,1.6c0.9,2.5,7,1.4,7,1.4s0.6,7.1,2.9,6.3c2.3-0.8,1.2,14,0.4,15.4c-0.8,1.4,7.8-8.7,7.3-16.1
				c-0.4-5.4,1.1,2.3,1.9,7c0.7-4.1,1.1-8.4,1.1-12.8C246.2,143.8,226.5,117.4,198.9,107.4z"/>
			<path class="st1" d="M201.1,170.3C201.1,170.4,201.1,170.4,201.1,170.3C201.1,170.3,201.1,170.3,201.1,170.3z"/>
			<path class="st0" d="M194.4,111c0,0,2.3,2,4,0.6c-3.8-0.9-6-5.3-6-5.3c-2.3-0.3-1,1.3-1,1.3L194.4,111z"/>
			<path class="st0" d="M159,133c-0.2,1.2-1.8,1.4-1.8,1.4l-0.4,1.5l-0.7,0.8c0,0,1,0.3,1.8,0.3c0.8-0.1-3.4,1.2-1.8,2.1
				c0,0,0.1-0.7,2.5-0.7s4-0.4,4-0.4s-0.5-1,0.4-1.6c0.9-0.6,0.3-1.5-0.6-1.4c-0.9,0.1-0.6-2.1-0.6-2.1l-0.9-0.8
				c0,0,0.3-1.1-1.2-1.3c0.8-0.6,1.4-1.8,1.4-1.8s0.4-0.7-1.5-0.6c0.8-1.1,0.4-2.8-1.1-1.3c-1.5,1.5-1.9,3.2-1.9,3.2l0.9,2.1
				C157.5,132.4,159.2,131.8,159,133z"/>
			<path class="st0" d="M153.4,133c-2,0-1.4,0.6-1.4,0.6s1,1.2,0.5,1.5c-0.4,0.3-1.1,1.2-1.1,1.2c-0.2,0.8,0.2,0.8,0.2,0.8
				s0.8,0.2,2.1-0.8c2.1,0.1,1.6-2.2,1.6-2.2s0.9-0.8,0.9-2s-2.4-0.1-2.4-0.1S155.4,133,153.4,133z"/>
			<path class="st0" d="M149.7,120.7c0,0,1.9,0.3,4.3-1.1s0.5-2.3,0.5-2.3s-3.1-0.4-4.9,0c-1.8,0.4-1,2.3-1,2.3
				C149.2,120.6,149.7,120.7,149.7,120.7z"/>
			<path class="st0" d="M134.2,119c-6.3,7-1.8,6.5-1.8,6.5s3.6-6.8,9.3-7.6c5.7-0.8,6-3.5,6-3.5s3.9,0.3,6.4-1.6
				c2.5-1.8,6.8-4.6,6.8-4.6s3.5-3.9,8.2-4c2.3-0.1,3.1-0.5,3.4-1c-5.6,0.2-10.9,1-16.1,2.4C152.6,107.2,139.6,113.1,134.2,119z"/>
			<path class="st0" d="M111.8,144.7c-0.8-1.4,0.5-3.7,0.5-3.7s1.3-1.6,3.9-2.7c2.6-1.1,4.2-4.2,4.3-6.8c0.1-2.6,4.3-6.5,4.3-6.5
				c-0.6,0-1.3,0.1-1.9,0.4c-7,7.3-12.4,16.1-15.8,25.8C108.9,149.5,112.4,145.8,111.8,144.7z"/>
			<path class="st0" d="M116.1,139.6c-1.8,0.4-2.7,3-2.7,3s0.4,1.1,1.3,1.1s1.6-0.4,1.6-0.4S117.9,139.1,116.1,139.6z"/>
			<path class="st0" d="M171.5,151.3c0,0,0.5-2.6-0.3-2c-0.8,0.6-0.9,1.2-0.9,1.2C170.8,151.9,171.5,151.3,171.5,151.3z"/>
			<path class="st0" d="M170.3,153.1c0,0,0.4,0.1,0.3,0.4c0,0-0.7,1.6,0.1,1.5c0.8-0.1,1.3-1.2,1.3-1.2s0.7-2.1-1.2-2
				S170.3,153.1,170.3,153.1z"/>
			<path class="st0" d="M163.7,154.2c0,0,0.2-0.5-0.5-0.6c0,0-1,0.1-0.6,0.6C163.1,154.7,163.7,154.2,163.7,154.2z"/>
			<path class="st0" d="M176.8,157.4c0.5,0.6,1.2,1.2,1.2,1.2s0.9-0.6,0.7-1.1c-0.2-0.5,0-0.9,0-0.9s-1.1-1.1-3.3-0.1
				C175.4,156.5,176.3,156.8,176.8,157.4z"/>
			<path class="st0" d="M190.5,160.9c0,0,1.5-1.3,0.3-1.1c-1.3,0.2-1.9-0.1-1.9-0.1C188.2,160.8,190.5,160.9,190.5,160.9z"/>
			<path class="st0" d="M199.5,161.3c0.7,0.1,1-0.5,1-0.5s0.4-0.9-0.4-1.2c-0.7-0.3-1.4,0.8-1.4,0.8
				C198.7,161,198.8,161.2,199.5,161.3z"/>
			<path class="st0" d="M149.3,241.4c-1.8,0-11.9-8.8-12.8-9.5c-0.9-0.7,0-3.8,0-3.8s-4.5-4.1-4.8-9.8c-0.4-5.7-5.3-7.2-5.3-7.5
				s-8.3-2.4-8.5-3.5c-0.2-1.1-4.2-7.6-7-8.4c-2.8-0.9-4.9-7-4.9-7c-0.1,0.3-0.3,0.6-0.4,1c5.9,22.8,22.8,41.1,44.7,49.1
				C150,241.6,149.7,241.4,149.3,241.4z"/>
			<path class="st0" d="M204.2,223c-1.9,1.1-2.8,1-2.9,1.2c-0.1,0.1-0.6,2.7-1.9,3.3s-2.4,3.1-2.4,3.1s-0.1,1.8,2.6,0.5
				c4.1-2,8.1-11.2,8.1-11.2S206.1,221.9,204.2,223z"/>
			<path class="st0" d="M236.3,198.8c0,0.8,0.5,1.2,0.5,1.2l0.8-0.9c0,0,0.6-1.8,0.1-3.1C237.7,196.1,236.3,198.1,236.3,198.8z"/>
		</g>
	</g>
	<path class="st0" d="M303.3,80.5v99.3h-47.3c-3,40.5-34.8,73.6-76,76.3v48H77.5v20h16.8h96h17.4v-0.1c0.4,0,0.8,0,1.1,0
		c63.2,0,114.4-51.2,114.5-114.4h0v-85.4V95.5V80.5H303.3z"/>
	<path class="st0" d="M79.2,102.2c-1.1,1.5-2.1,2.9-3.2,4.4c-1.5,2.3-3,4.6-4.3,7c-2.3,4-4.3,8.1-6.1,12.3
		c-1.8,4.2-3.3,8.6-4.6,13.1c-0.3,0.9-0.5,1.8-0.7,2.7c-2.3,9-3.6,18.5-3.6,28.3h36.6c2.4-41.6,35.8-74.3,76.7-76.7V56.7
		c-21.5,0-41.6,6-58.7,16.4c-0.8,0.5-1.6,1-2.3,1.4c-2.5,1.6-4.9,3.3-7.2,5c-2.3,1.8-4.6,3.6-6.8,5.6c-1.7,1.5-3.4,3.1-5,4.7
		c-2.6,2.6-5,5.3-7.3,8.1C81.4,99.3,80.3,100.8,79.2,102.2z"/>
</g>
</svg>
